<?xml version="1.0" encoding="utf-8"?>
<!-- Generator: Adobe Illustrator 16.0.0, SVG Export Plug-In . SVG Version: 6.00 Build 0)  -->
<!DOCTYPE svg PUBLIC "-//W3C//DTD SVG 1.1//EN" "http://www.w3.org/Graphics/SVG/1.1/DTD/svg11.dtd">
<svg version="1.1" id="Layer_1" xmlns="http://www.w3.org/2000/svg" xmlns:xlink="http://www.w3.org/1999/xlink" x="0px" y="0px"
	 width="373.113px" height="314.547px" viewBox="0 0 373.113 314.547" enable-background="new 0 0 373.113 314.547"
	 xml:space="preserve">
<g>
	<g>
		<path fill-rule="evenodd" clip-rule="evenodd" fill="#00BCD4" d="M366.398,132.292c-9.904-27.223-36.388-46.014-65.333-46.245
			c-2.083-0.017-2.771-0.676-3.23-2.656c-2.885-12.413-8.857-23.174-17.546-32.506c-18.576-19.953-49.109-27.383-74.703-17.991
			c-1.463,0.537-2.143,0.404-3.056-0.895c-11.326-16.118-26.583-26.35-46.039-29.78c-21.478-3.787-41.036,1.221-57.594,15.292
			C78.432,34.901,70.38,57.378,74.423,84.017c0.26,1.712-0.122,1.962-1.673,1.991c-18.332,0.335-34.398,6.491-47.839,19.05
			C10.609,118.42,3.026,135.044,2.316,154.524c-0.717,19.686,5.836,36.958,19.375,51.295c13.288,14.073,29.832,21.884,49.174,22.084
			c38.558,0.399,77.121,0.118,115.683,0.121c38.4,0.002,76.801,0.158,115.201-0.071c16.297-0.098,30.881-5.752,43.38-16.203
			C368.597,192.126,376.833,160.975,366.398,132.292z M186.611,85.996c15.654,0.03,28.346,12.83,28.249,28.49
			c-0.096,15.553-12.813,28.152-28.381,28.118c-15.559-0.034-28.23-12.703-28.256-28.25
			C158.198,98.701,170.948,85.966,186.611,85.996z M273.424,158.691c-17.646,20.55-39.67,33.641-66.383,38.671
			c-6.779,1.276-13.614,1.829-23.434,1.937c-31.737-0.726-60.619-13.917-83.46-40.092c-4.823-5.527-4.269-14.314,1.054-19.352
			c5.524-5.228,14.206-5.36,19.469-0.002c4.762,4.848,9.334,9.848,14.814,13.953c12.927,9.682,27.356,15.315,43.45,16.752
			c16.519,1.477,32.151-1.568,46.831-9.234c8.926-4.661,16.845-10.695,23.597-18.226c2.395-2.67,4.815-5.418,8.305-6.715
			c6.097-2.266,12.695-0.229,16.432,4.952C277.844,146.529,277.711,153.699,273.424,158.691z"/>
	</g>
	<g>
		<path fill="#00BCD4" d="M1,255.692h28.275v5.524H6.64v17.688h22.636v5.524H6.64v27.7H1V255.692z"/>
		<path fill="#00BCD4" d="M40.076,253.198c1.222,0,2.267,0.436,3.132,1.304c0.866,0.871,1.299,1.919,1.299,3.147
			c0,1.202-0.433,2.237-1.299,3.106c-0.865,0.87-1.91,1.306-3.132,1.306c-1.197,0-2.229-0.436-3.095-1.306
			c-0.865-0.869-1.299-1.904-1.299-3.106c0-1.229,0.434-2.276,1.299-3.147C37.847,253.633,38.879,253.198,40.076,253.198z
			 M37.41,270.386h5.371v41.742H37.41V270.386z"/>
		<path fill="#00BCD4" d="M74.932,274.952l-3.453,3.567c-2.872-2.787-5.681-4.182-8.424-4.182c-1.744,0-3.238,0.576-4.481,1.727
			c-1.244,1.15-1.865,2.494-1.865,4.028c0,1.356,0.512,2.647,1.537,3.875c1.025,1.254,3.179,2.724,6.459,4.412
			c3.999,2.072,6.716,4.067,8.151,5.985c1.409,1.943,2.114,4.131,2.114,6.561c0,3.428-1.204,6.33-3.612,8.709
			s-5.418,3.568-9.029,3.568c-2.409,0-4.708-0.525-6.897-1.573c-2.19-1.049-4.003-2.494-5.438-4.336l3.376-3.836
			c2.743,3.095,5.653,4.643,8.73,4.643c2.152,0,3.985-0.691,5.498-2.072c1.513-1.382,2.27-3.005,2.27-4.873
			c0-1.534-0.5-2.901-1.499-4.104c-1-1.177-3.256-2.66-6.768-4.45c-3.768-1.944-6.331-3.861-7.689-5.756
			c-1.358-1.893-2.038-4.053-2.038-6.483c0-3.171,1.083-5.806,3.248-7.902c2.164-2.098,4.899-3.146,8.204-3.146
			C67.168,269.312,71.037,271.191,74.932,274.952z"/>
		<path fill="#00BCD4" d="M86.307,253.198c1.222,0,2.267,0.436,3.133,1.304c0.865,0.871,1.299,1.919,1.299,3.147
			c0,1.202-0.434,2.237-1.299,3.106c-0.866,0.87-1.911,1.306-3.133,1.306c-1.197,0-2.229-0.436-3.095-1.306
			c-0.865-0.869-1.298-1.904-1.298-3.106c0-1.229,0.433-2.276,1.298-3.147C84.078,253.633,85.109,253.198,86.307,253.198z
			 M83.641,270.386h5.371v41.742h-5.371V270.386z"/>
		<path fill="#00BCD4" d="M119.935,269.312c6.431,0,11.76,2.328,15.988,6.981c3.843,4.247,5.765,9.272,5.765,15.079
			c0,5.831-2.031,10.928-6.092,15.288c-4.062,4.361-9.282,6.542-15.661,6.542c-6.406,0-11.64-2.181-15.7-6.542
			c-4.062-4.36-6.092-9.457-6.092-15.288c0-5.78,1.921-10.794,5.765-15.04C108.135,271.652,113.478,269.312,119.935,269.312z
			 M119.915,274.568c-4.466,0-8.304,1.649-11.513,4.949c-3.208,3.3-4.813,7.289-4.813,11.971c0,3.018,0.732,5.832,2.195,8.439
			c1.463,2.609,3.439,4.624,5.929,6.043c2.49,1.42,5.224,2.13,8.201,2.13c2.977,0,5.711-0.71,8.201-2.13
			c2.489-1.419,4.466-3.434,5.929-6.043c1.463-2.607,2.195-5.422,2.195-8.439c0-4.682-1.611-8.671-4.832-11.971
			C128.187,276.217,124.355,274.568,119.915,274.568z"/>
		<path fill="#00BCD4" d="M205.068,266.166l-4.45,3.415c-2.455-3.197-5.403-5.621-8.844-7.271
			c-3.439-1.648-7.219-2.474-11.337-2.474c-4.502,0-8.671,1.081-12.508,3.241c-3.836,2.163-6.81,5.064-8.92,8.71
			c-2.109,3.645-3.165,7.744-3.165,12.296c0,6.881,2.36,12.623,7.079,17.227c4.719,4.604,10.672,6.905,17.859,6.905
			c7.903,0,14.515-3.095,19.835-9.284l4.45,3.376c-2.813,3.581-6.324,6.35-10.53,8.307c-4.209,1.957-8.908,2.935-14.101,2.935
			c-9.873,0-17.661-3.286-23.364-9.859c-4.783-5.55-7.175-12.251-7.175-20.104c0-8.261,2.896-15.212,8.69-20.852
			c5.793-5.641,13.05-8.46,21.771-8.46c5.27,0,10.027,1.042,14.272,3.127C198.879,259.484,202.357,262.406,205.068,266.166z"/>
		<path fill="#00BCD4" d="M214.698,254.272h5.372v57.856h-5.372V254.272z"/>
		<path fill="#00BCD4" d="M250.992,269.312c6.432,0,11.761,2.328,15.988,6.981c3.844,4.247,5.766,9.272,5.766,15.079
			c0,5.831-2.031,10.928-6.093,15.288c-4.06,4.361-9.281,6.542-15.661,6.542c-6.405,0-11.639-2.181-15.699-6.542
			c-4.063-4.36-6.093-9.457-6.093-15.288c0-5.78,1.922-10.794,5.766-15.04C239.192,271.652,244.536,269.312,250.992,269.312z
			 M250.974,274.568c-4.467,0-8.305,1.649-11.512,4.949c-3.209,3.3-4.813,7.289-4.813,11.971c0,3.018,0.73,5.832,2.194,8.439
			c1.462,2.609,3.438,4.624,5.929,6.043c2.49,1.42,5.223,2.13,8.201,2.13c2.977,0,5.71-0.71,8.2-2.13
			c2.489-1.419,4.467-3.434,5.929-6.043c1.464-2.607,2.195-5.422,2.195-8.439c0-4.682-1.611-8.671-4.832-11.971
			C259.244,276.217,255.414,274.568,250.974,274.568z"/>
		<path fill="#00BCD4" d="M281.992,270.386h5.372v19.489c0,4.758,0.255,8.031,0.769,9.822c0.768,2.558,2.234,4.578,4.399,6.062
			c2.164,1.484,4.744,2.226,7.742,2.226c2.996,0,5.538-0.723,7.627-2.168c2.087-1.444,3.527-3.344,4.322-5.697
			c0.537-1.611,0.807-5.026,0.807-10.244v-19.489h5.486v20.487c0,5.755-0.671,10.09-2.015,13.006
			c-1.342,2.916-3.363,5.198-6.062,6.849c-2.698,1.649-6.081,2.475-10.147,2.475c-4.067,0-7.462-0.825-10.187-2.475
			c-2.725-1.65-4.756-3.952-6.101-6.906c-1.342-2.954-2.014-7.398-2.014-13.332V270.386z"/>
		<path fill="#00BCD4" d="M372.113,254.272v57.856h-5.294v-7.175c-2.251,2.737-4.776,4.795-7.577,6.178
			c-2.802,1.38-5.864,2.071-9.188,2.071c-5.909,0-10.954-2.142-15.136-6.427c-4.182-4.284-6.273-9.496-6.273-15.634
			c0-6.011,2.11-11.151,6.33-15.423c4.222-4.272,9.299-6.407,15.232-6.407c3.428,0,6.527,0.729,9.303,2.187s5.212,3.645,7.31,6.561
			v-23.787H372.113z M350.648,274.492c-2.989,0-5.748,0.733-8.278,2.203c-2.529,1.47-4.541,3.533-6.036,6.189
			c-1.494,2.656-2.24,5.467-2.24,8.43c0,2.939,0.753,5.75,2.261,8.432c1.506,2.683,3.531,4.771,6.073,6.266
			c2.542,1.495,5.269,2.242,8.182,2.242c2.938,0,5.724-0.741,8.354-2.223c2.631-1.482,4.656-3.487,6.074-6.017
			c1.417-2.529,2.126-5.378,2.126-8.547c0-4.827-1.59-8.864-4.771-12.109C359.212,276.115,355.298,274.492,350.648,274.492z"/>
	</g>
</g>
</svg>
