<svg version="1.1" id="Layer_1" xmlns="http://www.w3.org/2000/svg" xmlns:xlink="http://www.w3.org/1999/xlink" x="0px" y="0px"
	 width="237.194px" height="249.306px" viewBox="86.555 78.142 237.194 249.306"
	 enable-background="new 86.555 78.142 237.194 249.306" xml:space="preserve">
<g>
	<g>
		<path d="M86.999,215.075c-1.484-3.644,0.742-8.112,6.801-13.662c5.062-4.64,12.746-10.034,22.832-16.041
			c20.549-12.23,48.963-25.742,80-38.039c31.043-12.299,61.033-21.931,84.451-27.118c11.492-2.546,20.824-3.892,27.73-3.993
			c8.263-0.125,13.008,1.583,14.492,5.227l-4.836,1.916c-0.024-0.059-2.691-5.563-36.246,1.871
			c-23.153,5.127-52.864,14.671-83.646,26.868c-30.788,12.2-58.938,25.578-79.256,37.672
			c-29.448,17.529-27.514,23.327-27.485,23.384L86.999,215.075z"/>
		<ellipse fill="#FCC115" cx="211.948" cy="173.472" rx="76.051" ry="75.026"/>
		<path d="M100.655,220.308c-7.756,0-12.229-1.714-13.654-5.232l4.837-1.916c0.021,0.059,2.683,5.563,36.241-1.871
			c23.154-5.129,52.859-14.674,83.649-26.873c30.788-12.197,58.937-25.576,79.255-37.667c29.445-17.528,27.509-23.327,27.488-23.384
			l4.836-1.916c1.479,3.642-0.745,8.109-6.801,13.661c-5.064,4.641-12.746,10.032-22.834,16.039
			c-20.55,12.23-48.961,25.742-80.004,38.039c-31.037,12.298-61.027,21.931-84.446,27.118c-11.496,2.548-20.829,3.89-27.735,3.996
			C101.207,220.308,100.929,220.308,100.655,220.308z"/>
		<g>
			<path d="M192.144,265.335c0,1.987-1.635,3.602-3.65,3.602c-2.014,0-3.646-1.611-3.646-3.602c0-1.984,1.633-3.602,3.646-3.602
				C190.509,261.735,192.144,263.35,192.144,265.335z"/>
			<path d="M227.713,316.437c-1.757,4.212-5.313,7.777-9.749,9.645c-0.278,0.111-0.553,0.239-0.836,0.342l-0.865,0.28
				c-0.572,0.21-1.177,0.304-1.771,0.447c-0.601,0.123-1.21,0.168-1.823,0.257c-0.617,0.014-1.237,0.064-1.857,0.026
				c-0.612-0.056-1.246-0.056-1.855-0.188l-0.927-0.166l-0.11-0.019c0.021,0.009-0.105-0.026-0.113-0.026l-0.049-0.017l-0.207-0.06
				l-0.416-0.114c-0.525-0.116-1.196-0.395-1.792-0.62c-0.571-0.273-1.153-0.523-1.688-0.863c-0.561-0.302-1.064-0.682-1.586-1.051
				c-0.488-0.403-0.985-0.796-1.426-1.252c-0.897-0.896-1.705-1.893-2.352-2.981c-0.652-1.084-1.215-2.229-1.6-3.438
				c-0.385-1.207-0.641-2.455-0.758-3.728c-0.204-2.536,0.16-5.18,1.271-7.58c1.06-2.415,2.895-4.53,5.114-5.99
				c0.271-0.197,0.555-0.366,0.85-0.523c0.288-0.159,0.569-0.338,0.864-0.479c0.604-0.268,1.194-0.567,1.816-0.767l0.464-0.162
				l0.229-0.085l0.115-0.041l0.155-0.043l0.839-0.23l0.961-0.226l0.912-0.184c2.413-0.437,4.813-0.665,7.236-0.695
				c2.43-0.021,4.876,0.113,7.412,0.685c0.317,0.08,0.635,0.151,0.956,0.244l0.968,0.313l0.855,0.331
				c0.275,0.114,0.613,0.264,0.916,0.396c0.601,0.285,1.189,0.582,1.804,0.987c0.603,0.389,1.237,0.862,1.847,1.604
				c0.299,0.363,0.593,0.843,0.807,1.402c0.193,0.585,0.299,1.278,0.189,1.933c-0.037,0.337-0.138,0.62-0.233,0.918
				c-0.116,0.263-0.244,0.536-0.386,0.758c-0.283,0.447-0.596,0.817-0.908,1.104c-0.627,0.602-1.253,1.009-1.869,1.361
				c-0.619,0.351-1.23,0.625-1.844,0.867c-1.223,0.49-2.445,0.825-3.68,1.101c-0.31,0.059-0.613,0.126-0.926,0.181l-0.488,0.083
				l-0.425,0.064c-0.551,0.09-1.165,0.166-1.772,0.249c-4.752,0.573-9.533,0.642-14.313,0.147c-2.387-0.264-4.777-0.658-7.137-1.273
				c-2.355-0.612-4.695-1.432-6.932-2.556c-1.109-0.568-2.209-1.193-3.248-1.931c-1.041-0.729-2.041-1.538-2.948-2.456
				c-0.474-0.438-0.89-0.94-1.319-1.423l-0.601-0.771l-0.149-0.192l-0.033-0.045c0.036,0.06-0.1-0.134-0.097-0.131l-0.061-0.091
				l-0.233-0.358l-0.232-0.354l-0.121-0.181l-0.133-0.24l-0.528-0.97c-0.282-0.641-0.56-1.278-0.749-1.976
				c-0.396-1.364-0.533-2.859-0.355-4.304c0.173-1.446,0.639-2.813,1.262-4.034c1.267-2.454,3.076-4.321,4.953-5.952
				c1.903-1.604,3.932-2.957,6.027-4.146c2.087-1.198,4.242-2.234,6.453-3.154l0.413-0.171l0.44-0.177
				c0.248-0.099,0.59-0.22,0.902-0.327c0.596-0.202,1.189-0.386,1.781-0.55c1.182-0.328,2.354-0.596,3.525-0.834
				c2.348-0.476,4.689-0.817,7.039-1.077c4.695-0.513,9.416-0.701,14.186-0.453c2.386,0.13,4.781,0.378,7.191,0.846
				c2.41,0.485,4.855,1.141,7.264,2.46c0.603,0.345,1.191,0.729,1.771,1.188c0.574,0.461,1.127,0.991,1.621,1.612
				c0.994,1.24,1.658,2.923,1.723,4.54l0.01,0.149c0,0.485,0,0.167,0,0.286l-0.007,0.054l-0.009,0.215l-0.025,0.423
				c-0.063,0.432-0.18,1.007-0.313,1.464c-0.148,0.375-0.293,0.768-0.466,1.117c-0.187,0.331-0.364,0.68-0.566,0.989
				c-0.207,0.29-0.411,0.601-0.625,0.874c-0.223,0.265-0.443,0.54-0.668,0.792c-0.226,0.24-0.454,0.487-0.688,0.721l-0.352,0.337
				l-0.178,0.167l-0.085,0.085l-0.043,0.038c0.146-0.085-1.457,0.927-0.801,0.511l0.662-0.396c-1.553,1.241-3.21,2.18-4.896,2.955
				c-1.693,0.731-3.409,1.354-5.147,1.809l-1.302,0.347l-1.309,0.28c-0.438,0.091-0.871,0.192-1.313,0.269l-1.312,0.214
				c-0.872,0.157-1.749,0.248-2.629,0.35c-0.874,0.116-1.754,0.164-2.635,0.23c-0.877,0.079-1.756,0.091-2.635,0.119
				c-0.878,0.041-1.757,0.031-2.632,0.02l-1.314-0.017l-1.313-0.063c-0.874-0.038-1.749-0.085-2.62-0.176
				c-1.744-0.138-3.479-0.368-5.215-0.628l-2.627-0.456c-0.834-0.176-1.635-0.333-2.493-0.532c-1.707-0.378-3.374-0.796-5.051-1.257
				c-0.841-0.229-1.675-0.483-2.51-0.733c-0.832-0.278-1.669-0.523-2.491-0.832c-0.83-0.295-1.653-0.592-2.477-0.931
				c-0.818-0.317-1.63-0.685-2.438-1.044c-0.813-0.357-1.601-0.785-2.402-1.175c-0.775-0.446-1.572-0.851-2.336-1.34l-1.143-0.721
				c-0.38-0.237-0.742-0.519-1.115-0.775c-0.749-0.508-1.453-1.09-2.158-1.668c-0.361-0.276-0.689-0.602-1.026-0.905
				c-0.333-0.317-0.679-0.621-0.999-0.942l-0.946-1.01l-0.231-0.252l-0.119-0.128l-0.059-0.062l-0.031-0.032l-0.012-0.017
				l-0.063-0.073l-0.4-0.488c-0.252-0.294-0.558-0.722-0.848-1.114c-0.309-0.404-0.531-0.774-0.787-1.16
				c-0.497-0.772-0.961-1.554-1.379-2.362c-0.85-1.61-1.567-3.286-2.125-5.063c-0.436-1.389,0.354-2.86,1.761-3.29
				c0.083-0.026,0.173-0.05,0.259-0.067l0.022-0.002l0.011-0.002l-2.077,3.229c-1.134-4.404-3.045-8.626-5.658-12.319
				c-0.607-0.961-1.383-1.784-2.094-2.661c-0.342-0.454-0.763-0.821-1.153-1.223l-1.192-1.188l-1.288-1.057l-0.646-0.535
				c-0.278-0.229-0.498-0.385-0.75-0.581l-2.917-2.234c-0.976-0.703-1.938-1.583-2.912-2.41c-0.954-0.841-1.954-1.656-2.87-2.522
				l-2.698-2.641c-0.445-0.444-0.917-0.863-1.339-1.332l-1.268-1.397c-0.844-0.937-1.702-1.854-2.529-2.8l-2.359-2.94l-1.181-1.472
				l-1.086-1.538l-2.175-3.073l-1.992-3.195l-0.992-1.601c-0.319-0.538-0.604-1.103-0.904-1.647l-1.785-3.315
				c-0.569-1.114-1.063-2.27-1.6-3.401c-1.115-2.249-1.938-4.619-2.864-6.948c-0.243-0.578-0.435-1.177-0.618-1.774l-0.569-1.789
				l-0.567-1.79l-0.285-0.894c-0.086-0.305-0.155-0.608-0.234-0.911c-0.589-2.435-1.288-4.845-1.673-7.321
				c-0.218-1.229-0.466-2.461-0.661-3.695l-0.441-3.727l-0.22-1.863c-0.054-0.623-0.067-1.248-0.108-1.871l-0.199-3.749
				c-0.053-0.623-0.022-1.25-0.021-1.875l0.022-1.876l0.021-1.873l0.011-0.938l0.002-0.116c0.002-0.072-0.002-0.015,0.007-0.188
				l0.016-0.227l0.034-0.457l0.25-3.637c0.105-1.229,0.285-2.51,0.434-3.762c0.079-0.625,0.135-1.265,0.243-1.883l0.319-1.85
				c0.228-1.231,0.396-2.474,0.701-3.689c0.994-4.908,2.503-9.708,4.295-14.385c0.871-2.354,1.938-4.626,2.979-6.908l1.717-3.354
				c0.271-0.563,0.596-1.105,0.904-1.647l0.939-1.633c2.553-4.327,5.409-8.479,8.606-12.364c3.214-3.875,6.72-7.511,10.482-10.865
				c3.749-3.373,7.828-6.38,12.078-9.109c8.491-5.489,17.919-9.521,27.71-12.142c4.916-1.253,9.922-2.142,14.965-2.665l3.795-0.309
				c1.266-0.074,2.533-0.09,3.801-0.138c1.27-0.063,2.533-0.026,3.804-0.002l1.9,0.034l0.477,0.012l0.235,0.004l0.305,0.021
				l0.92,0.063l3.686,0.252l3.834,0.452c1.287,0.124,2.519,0.387,3.771,0.583l1.875,0.318c0.625,0.109,1.242,0.266,1.855,0.397
				c1.237,0.288,2.485,0.518,3.709,0.853l3.668,1.005c2.414,0.766,4.84,1.512,7.188,2.458c9.482,3.589,18.301,8.786,26.179,15.085
				c3.908,3.188,7.563,6.675,10.942,10.407c0.825,0.948,1.688,1.866,2.479,2.845l2.361,2.938c1.493,2.023,2.995,4.039,4.338,6.166
				l1.032,1.579l0.953,1.622l0.956,1.624l0.47,0.813l0.44,0.837c0.576,1.112,1.17,2.217,1.734,3.337l1.585,3.414
				c2.015,4.595,3.668,9.334,4.966,14.177c2.508,9.698,3.501,19.762,2.86,29.765c-0.613,9.955-2.817,19.863-6.551,29.162
				c-3.72,9.301-8.963,18.012-15.433,25.699l-0.343-3.68l0.021,0.014l0.051,0.045c1.096,0.905,1.237,2.52,0.316,3.598
				c-0.008,0.012-0.023,0.029-0.03,0.039c-0.971,1.101-1.921,2.22-2.912,3.304c-1.02,1.056-2.001,2.146-3.063,3.171
				c-2.098,2.059-4.264,4.054-6.55,5.907l-1.71,1.396c-0.569,0.463-1.178,0.886-1.763,1.331l-1.776,1.314l-1.83,1.241
				c-0.612,0.406-1.213,0.839-1.84,1.229l-1.885,1.16l-0.941,0.578l-0.232,0.145l-0.16,0.097l-0.114,0.064l-0.472,0.267
				l-0.936,0.522l-0.468,0.267l-0.507,0.267c-1.354,0.72-2.703,1.372-4.083,1.979c-1.384,0.604-2.802,1.153-4.253,1.631
				c-2.902,0.953-5.963,1.609-9.107,1.79c-3.137,0.181-6.362-0.135-9.413-1.044c-0.75-0.259-1.521-0.479-2.248-0.782l-1.094-0.463
				l-0.544-0.233l-0.037-0.015l-0.105-0.056l-0.063-0.029l-0.118-0.062l-0.239-0.124c-0.65-0.344-1.24-0.606-1.979-1.071
				l-1.058-0.638c-0.337-0.226-0.652-0.461-0.98-0.688c-1.304-0.913-2.503-2.011-3.599-3.202c-1.095-1.197-2.008-2.553-2.806-3.955
				c-0.757-1.424-1.352-2.907-1.817-4.407c-0.428-1.502-0.754-3.017-0.967-4.519c-0.104-0.749-0.193-1.496-0.262-2.239l-0.092-1.113
				l-0.011-0.192l-0.007-0.133l-0.009-0.269c-0.013-0.169-0.008-0.424-0.013-0.631c0.016-1.616,0.154-3.066,0.334-4.554
				c0.377-2.946,0.959-5.84,1.796-8.716c0.418-1.439,0.907-2.867,1.515-4.286c0.605-1.417,1.319-2.827,2.283-4.192
				c0.964-1.347,2.172-2.73,4.031-3.653c0.441-0.244,0.972-0.396,1.469-0.556c0.524-0.104,1.055-0.225,1.592-0.218l0.398-0.011
				l0.2-0.002l0.25,0.021l0.271,0.022l0.135,0.011l0.226,0.036c0.318,0.052,0.641,0.105,0.939,0.211
				c0.157,0.052,0.306,0.097,0.459,0.16c0.166,0.073,0.332,0.154,0.494,0.242c0.656,0.354,1.367,1.004,1.741,1.809
				c0.366,0.793,0.432,1.533,0.412,2.148c-0.075,1.203-0.392,2.063-0.705,2.863l-0.127,0.287l-0.063,0.146l-0.031,0.071
				l-0.016,0.035c0.068-0.137-0.115,0.229-0.104,0.198l-0.261,0.465c-0.062,0.126-0.235,0.383-0.385,0.599
				c-0.153,0.215-0.314,0.463-0.463,0.621c-0.592,0.736-1.291,1.342-2.017,1.888c-1.474,1.043-3.106,1.742-4.804,2.113
				c-1.69,0.39-3.461,0.438-5.22,0.162l0.297,0.031c-0.875-0.063-1.664-0.228-2.353-0.459c-0.704-0.22-1.337-0.501-1.96-0.796
				l-0.891-0.465l-0.851-0.504c-0.558-0.347-1.093-0.712-1.607-1.092c-0.518-0.382-1.019-0.775-1.505-1.188
				c-0.49-0.409-0.965-0.832-1.416-1.276c-0.464-0.44-0.9-0.898-1.332-1.372l-0.632-0.721l-0.609-0.747
				c-0.394-0.511-0.776-1.027-1.134-1.578c-0.186-0.269-0.348-0.557-0.52-0.84c-0.175-0.28-0.33-0.57-0.485-0.873
				c-0.155-0.292-0.304-0.598-0.438-0.91c-0.141-0.312-0.276-0.625-0.387-0.958c-0.123-0.326-0.238-0.657-0.323-1.009l-0.138-0.519
				c-0.035-0.177-0.067-0.36-0.102-0.542l-0.092-0.542l-0.042-0.569c-0.04-0.373-0.022-0.765-0.003-1.158
				c0.037-0.78,0.221-1.58,0.49-2.35c0.146-0.386,0.336-0.747,0.514-1.115c0.215-0.34,0.438-0.684,0.674-1.008
				c0.261-0.297,0.516-0.604,0.783-0.884c0.285-0.255,0.57-0.507,0.861-0.756l-0.126,0.107l0.508-0.414
				c0.155-0.137,0.374-0.271,0.587-0.401l0.319-0.19c0.112-0.062,0.257-0.119,0.385-0.177l0.397-0.16
				c0.141-0.053,0.313-0.088,0.473-0.122c0.166-0.034,0.326-0.066,0.495-0.09c0.18-0.008,0.362-0.012,0.546-0.008
				c0.365-0.009,0.729,0.091,1.089,0.183c0.333,0.109,0.659,0.267,0.938,0.433c0.245,0.164,0.53,0.354,0.708,0.538
				c0.198,0.186,0.396,0.378,0.535,0.559c0.158,0.188,0.304,0.375,0.418,0.553c0.127,0.183,0.236,0.361,0.334,0.533
				c0.104,0.175,0.199,0.353,0.281,0.521c0.085,0.17,0.175,0.343,0.242,0.509c0.072,0.164,0.155,0.335,0.217,0.497
				c0.137,0.327,0.251,0.651,0.37,0.972l0.024,0.073c0.032,0.088,0.055,0.188,0.066,0.28l0.141,1.111
				c0.019,0.369,0.036,0.737,0.039,1.11c-0.021,0.361-0.031,0.729-0.063,1.088c-0.045,0.354-0.088,0.719-0.146,1.067
				c-0.072,0.35-0.14,0.699-0.221,1.041c-0.097,0.338-0.187,0.678-0.285,1.011l-0.35,0.979l-0.395,0.949l-0.441,0.919l-0.481,0.886
				c-0.335,0.58-0.69,1.146-1.065,1.696c-0.756,1.097-1.595,2.127-2.501,3.092l-0.086,0.092l-0.135,0.141l-0.162,0.16l-0.321,0.316
				c-0.097,0.1-0.261,0.236-0.396,0.359l-0.434,0.369c-0.56,0.461-1.121,0.86-1.72,1.242c-0.594,0.37-1.214,0.71-1.849,1.012
				c-0.643,0.298-1.294,0.554-1.967,0.772s-1.359,0.393-2.059,0.526c-0.348,0.066-0.708,0.109-1.06,0.164
				c-0.354,0.037-0.716,0.059-1.071,0.09c-0.36,0.014-0.725,0.009-1.08,0.011c-0.361-0.013-0.729-0.042-1.088-0.066
				c-0.36-0.042-0.725-0.1-1.086-0.152l-1.076-0.238l0.483,0.074c-0.616-0.045-1.142-0.143-1.604-0.271
				c-0.241-0.062-0.471-0.128-0.693-0.205c-0.227-0.071-0.443-0.152-0.656-0.242c-0.439-0.167-0.859-0.362-1.275-0.586
				c-0.414-0.213-0.823-0.468-1.226-0.741l-0.601-0.454l-0.582-0.535c-0.191-0.195-0.375-0.418-0.558-0.634
				c-0.183-0.234-0.346-0.503-0.507-0.761c-0.15-0.289-0.275-0.611-0.395-0.924c-0.088-0.345-0.166-0.699-0.2-1.06
				c0.002-0.359-0.007-0.742,0.065-1.089c0.035-0.168,0.078-0.342,0.128-0.508l0.069-0.252c0.023-0.081,0.063-0.183,0.072-0.21
				l0.113-0.278c0.082-0.183,0.175-0.362,0.271-0.537c0.099-0.158,0.195-0.302,0.301-0.447c0.113-0.146,0.24-0.29,0.369-0.428
				c0.526-0.558,1.268-0.969,1.963-1.158c0.704-0.194,1.354-0.213,1.934-0.168c0.58,0.05,1.1,0.167,1.584,0.309
				c0.973,0.293,1.808,0.697,2.6,1.163c0.393,0.235,0.775,0.492,1.153,0.777c0.378,0.292,0.749,0.597,1.147,1.021l-0.322-0.281
				c0.863,0.661,1.693,1.372,2.377,2.187c0.371,0.39,0.664,0.819,0.994,1.235c0.287,0.431,0.598,0.856,0.851,1.308
				c0.539,0.89,0.966,1.813,1.355,2.743c0.373,0.938,0.704,1.883,0.954,2.843c0.521,1.916,0.813,3.86,0.936,5.821
				c0.028,0.464,0.064,0.885,0.074,1.391l-0.032,0.86c-0.016,0.284-0.024,0.583-0.063,0.821c-0.112,1.021-0.299,1.995-0.521,2.949
				l-0.359,1.414l-0.414,1.379c-0.307,0.902-0.604,1.81-0.942,2.688c-0.321,0.889-0.688,1.752-1.037,2.624
				c-0.376,0.856-0.735,1.724-1.131,2.565c-1.545,3.399-3.254,6.689-5.035,9.938c-0.526,0.97-1.757,1.33-2.737,0.806
				c-0.978-0.521-1.342-1.721-0.82-2.688l0.004-0.012c1.719-3.188,3.367-6.415,4.824-9.694c0.375-0.815,0.713-1.644,1.063-2.465
				c0.326-0.83,0.673-1.654,0.965-2.483c0.317-0.832,0.585-1.667,0.854-2.499l0.366-1.25l0.313-1.246
				c0.186-0.826,0.332-1.649,0.413-2.443c0.034-0.216,0.031-0.373,0.04-0.544l0.031-0.506c-0.008-0.407-0.049-0.897-0.08-1.348
				c-0.117-1.686-0.383-3.367-0.837-4.976c-0.214-0.808-0.495-1.59-0.803-2.353c-0.323-0.749-0.675-1.49-1.095-2.168
				c-0.193-0.352-0.438-0.663-0.65-0.994c-0.252-0.297-0.47-0.629-0.74-0.9c-0.501-0.596-1.092-1.07-1.686-1.534l-0.052-0.043
				c-0.093-0.069-0.188-0.156-0.266-0.24c-0.13-0.136-0.351-0.324-0.583-0.497c-0.235-0.176-0.494-0.347-0.758-0.499
				c-0.53-0.312-1.099-0.57-1.607-0.718c-0.252-0.071-0.492-0.116-0.682-0.13c-0.186-0.016-0.316,0.008-0.354,0.021
				c-0.043,0.019-0.005-0.004,0-0.004c0.002,0.008,0,0.002-0.007,0.008c0,0.011-0.014,0.023-0.016,0.026
				c0.007-0.002,0.009-0.017,0.007-0.026l-0.104,0.252c-0.024,0.061-0.016,0.049-0.016,0.061c0.005,0.012,0.005,0.017,0.005,0.027
				c-0.005,0.014-0.012,0.026-0.021,0.041c-0.013,0.026,0.021,0.028-0.009,0.045c0.011,0.019,0.027,0.036,0.014,0.063
				c0.035,0.036,0.042,0.073,0.061,0.126c0.058,0.06,0.078,0.119,0.13,0.188c0.077,0.072,0.134,0.147,0.202,0.226
				c0.093,0.079,0.185,0.159,0.27,0.237l0.32,0.241c0.234,0.149,0.479,0.309,0.746,0.442c0.263,0.136,0.543,0.266,0.826,0.369
				c0.142,0.063,0.283,0.109,0.424,0.152c0.145,0.05,0.281,0.088,0.416,0.122c0.277,0.081,0.52,0.104,0.666,0.122l0.22,0.026
				c0.089,0.015,0.179,0.026,0.267,0.045l0.715,0.155l0.729,0.1l0.743,0.042c0.255-0.005,0.499-0.003,0.751-0.012
				c0.256-0.024,0.508-0.036,0.754-0.064c0.256-0.045,0.507-0.07,0.759-0.12c0.5-0.102,0.991-0.229,1.482-0.39
				c0.488-0.161,0.965-0.354,1.438-0.573c0.465-0.224,0.917-0.471,1.354-0.747c0.429-0.273,0.854-0.587,1.229-0.896l0.263-0.226
				c0.093-0.079,0.169-0.133,0.283-0.252l0.323-0.318l0.159-0.16l0.043-0.042l0.002-0.002c0.017-0.017-0.095,0.098-0.048,0.047
				l0.011-0.011l0.016-0.021l0.074-0.074c0.749-0.805,1.439-1.668,2.056-2.569c0.311-0.452,0.592-0.911,0.863-1.379l0.381-0.708
				l0.342-0.72l0.297-0.722l0.257-0.733l0.204-0.73l0.15-0.73l0.096-0.725l0.037-0.715l-0.026-0.699l-0.089-0.686l0.097,0.358
				c-0.101-0.262-0.191-0.519-0.292-0.758c-0.045-0.124-0.104-0.234-0.153-0.353c-0.054-0.118-0.105-0.22-0.159-0.328
				c-0.051-0.109-0.104-0.202-0.16-0.292c-0.055-0.1-0.104-0.176-0.153-0.248c-0.056-0.083-0.103-0.143-0.146-0.188
				c-0.048-0.067-0.079-0.085-0.104-0.112c-0.034-0.047-0.029-0.004-0.029-0.024c0.009,0.01,0.051,0.034,0.09,0.039
				c0.054,0.041,0.121,0.014,0.171,0.036c0.026,0.005,0.055,0,0.079-0.01c0.017,0,0.021,0.01,0.035,0.004
				c0.007,0.002,0.022-0.018,0.018-0.011c-0.011,0.011-0.021,0.017-0.029,0.021c-0.013,0.008-0.02,0-0.04,0.012l-0.077,0.054
				c-0.053,0.036-0.105,0.057-0.183,0.128c-0.066,0.06-0.14,0.115-0.214,0.171l-0.003,0.008c-0.045,0.031-0.085,0.064-0.124,0.102
				c-0.146,0.14-0.299,0.273-0.456,0.406l-0.378,0.426c-0.102,0.15-0.189,0.302-0.295,0.447c-0.063,0.162-0.15,0.311-0.213,0.473
				c-0.104,0.328-0.192,0.67-0.207,1.05c-0.012,0.188-0.021,0.378,0.004,0.584l0.021,0.299l0.059,0.315l0.057,0.313l0.091,0.325
				c0.053,0.213,0.131,0.433,0.215,0.652c0.068,0.218,0.168,0.438,0.27,0.661c0.094,0.221,0.2,0.439,0.319,0.656
				c0.114,0.221,0.23,0.438,0.371,0.653c0.128,0.217,0.254,0.438,0.401,0.647c0.28,0.43,0.597,0.846,0.91,1.258l0.501,0.611
				l0.524,0.597c0.361,0.389,0.731,0.773,1.121,1.136c0.379,0.375,0.785,0.729,1.195,1.07c0.402,0.344,0.825,0.67,1.252,0.984
				c0.428,0.311,0.863,0.597,1.307,0.877l0.666,0.388l0.67,0.349c0.445,0.205,0.892,0.4,1.305,0.528
				c0.432,0.146,0.807,0.197,1.104,0.227l0.293,0.032c2.163,0.35,4.661-0.205,6.382-1.462c0.416-0.321,0.811-0.657,1.108-1.041
				c0.097-0.103,0.11-0.16,0.176-0.233c0.054-0.079,0.099-0.104,0.197-0.296l0.259-0.467c0.022-0.045-0.148,0.294-0.071,0.138
				l0.011-0.021l0.022-0.053l0.045-0.1l0.083-0.202c0.218-0.518,0.34-1.032,0.354-1.248c0-0.093-0.026-0.066,0.042,0.069
				c0.065,0.16,0.224,0.307,0.263,0.312c0.004,0.01,0.006,0.01,0.011,0.004c-0.011-0.004-0.038-0.007-0.054-0.011
				c-0.033-0.021-0.074-0.012-0.105-0.029c-0.016-0.004-0.007-0.009-0.039-0.011l-0.135-0.015l-0.266-0.021l-0.071-0.007
				l-0.032-0.003c0.039,0.003-0.137-0.009,0.082,0.005l-0.069,0.009l-0.14,0.006c-0.188-0.02-0.355,0.054-0.538,0.071
				c-0.178,0.079-0.358,0.098-0.544,0.216c-0.733,0.347-1.521,1.141-2.191,2.106c-1.362,1.961-2.332,4.505-3.076,7.07
				c-0.744,2.586-1.271,5.279-1.603,7.968c-0.162,1.331-0.274,2.72-0.279,3.938c0.005,0.147-0.004,0.25,0.005,0.435l0.014,0.266
				l0.006,0.133c-0.004-0.015,0.005,0.079-0.004-0.021l0.004,0.031l0.007,0.064l0.089,1.01c0.062,0.671,0.145,1.331,0.235,1.988
				c0.188,1.313,0.479,2.576,0.832,3.808c0.384,1.215,0.858,2.375,1.441,3.466c1.208,2.15,2.866,4.014,4.961,5.469
				c0.259,0.184,0.515,0.378,0.776,0.544l0.784,0.476c0.475,0.314,1.188,0.646,1.813,0.973l0.236,0.119l0.124,0.061l0.061,0.032
				c-0.146-0.069-0.027-0.014-0.05-0.024l0.024,0.013l0.45,0.187l0.891,0.375c0.596,0.245,1.215,0.414,1.821,0.626
				c2.465,0.726,5.057,0.968,7.662,0.809c2.6-0.155,5.215-0.724,7.765-1.569c1.272-0.428,2.537-0.925,3.782-1.471
				c1.248-0.557,2.48-1.16,3.659-1.79l0.448-0.234l0.465-0.265l0.936-0.531l0.472-0.269l0.112-0.066
				c-0.064,0.038-0.002,0-0.011,0.005l0.027-0.016l0.056-0.036l0.221-0.139l0.891-0.552l1.771-1.102
				c0.59-0.371,1.154-0.778,1.732-1.165l1.725-1.182l1.666-1.25c0.554-0.423,1.125-0.818,1.66-1.263l1.614-1.319
				c2.155-1.756,4.195-3.646,6.18-5.596c0.998-0.967,1.921-2.004,2.888-3c0.933-1.026,1.826-2.092,2.743-3.13l0.343,3.682
				l-0.02-0.017c-1.119-0.927-1.274-2.572-0.342-3.682v-0.004c6.104-7.279,11.035-15.515,14.532-24.304
				c3.506-8.791,5.563-18.111,6.123-27.56c0.239-4.69,0.257-9.445-0.263-14.133c-0.487-4.693-1.288-9.357-2.494-13.928
				c-1.228-4.557-2.807-9.021-4.705-13.35l-1.494-3.216l-1.651-3.14l-0.409-0.784l-0.449-0.771l-0.902-1.525l-0.902-1.529
				l-0.978-1.483c-1.259-2.007-2.683-3.903-4.088-5.81l-2.229-2.774c-0.746-0.923-1.562-1.784-2.338-2.682
				c-3.187-3.516-6.635-6.803-10.322-9.808c-7.426-5.933-15.73-10.829-24.667-14.2c-2.21-0.897-4.495-1.595-6.769-2.316
				l-3.455-0.945c-1.153-0.313-2.327-0.528-3.492-0.802c-0.584-0.124-1.164-0.27-1.749-0.374l-1.769-0.296
				c-1.175-0.187-2.363-0.438-3.523-0.547l-3.508-0.42l-3.688-0.25l-0.92-0.063l-0.119-0.01c-0.004,0-0.146-0.009-0.043,0
				l-0.225-0.004l-0.447-0.009l-1.793-0.032c-1.194-0.023-2.393-0.061-3.586,0.002c-1.191,0.045-2.389,0.063-3.583,0.131
				l-3.575,0.294c-4.748,0.494-9.461,1.332-14.089,2.513c-9.22,2.471-18.097,6.268-26.093,11.443
				c-8.049,5.099-15.197,11.529-21.269,18.813c-3.021,3.656-5.712,7.569-8.127,11.64l-0.887,1.538
				c-0.294,0.514-0.599,1.02-0.854,1.553l-1.621,3.151c-0.98,2.152-1.988,4.291-2.813,6.506c-1.691,4.408-3.124,8.923-4.065,13.55
				c-0.291,1.146-0.448,2.317-0.66,3.478l-0.313,1.745c-0.101,0.583-0.144,1.149-0.225,1.729c-0.133,1.161-0.303,2.285-0.409,3.479
				l-0.257,3.639l-0.029,0.454l-0.02,0.228c0.012-0.102,0.004,0.033,0.004,0.041v0.111l-0.014,0.884l-0.02,1.772l-0.023,1.77
				c-0.006,0.59-0.033,1.182,0.017,1.77l0.183,3.534c0.033,0.584,0.049,1.179,0.104,1.766l0.206,1.756l0.408,3.518
				c0.186,1.165,0.418,2.322,0.625,3.485c0.354,2.336,1.016,4.604,1.563,6.901c0.071,0.285,0.14,0.572,0.216,0.858l0.271,0.841
				l0.534,1.688l0.534,1.688c0.176,0.563,0.352,1.13,0.581,1.674c0.872,2.196,1.642,4.437,2.691,6.558
				c0.504,1.07,0.97,2.156,1.503,3.213l1.684,3.125c0.283,0.521,0.551,1.051,0.85,1.561l0.938,1.511l1.871,3.019l2.055,2.904
				l1.024,1.451l1.11,1.393l2.227,2.776c0.776,0.896,1.59,1.763,2.379,2.648l1.197,1.319c0.396,0.445,0.838,0.84,1.259,1.263
				l2.548,2.49c0.857,0.819,1.766,1.553,2.645,2.33c0.893,0.771,1.729,1.551,2.741,2.285l2.914,2.239
				c0.229,0.18,0.516,0.387,0.7,0.547l0.775,0.634l1.545,1.277c0.479,0.459,0.943,0.934,1.41,1.4c0.463,0.476,0.956,0.92,1.36,1.44
				c0.828,1.021,1.724,1.999,2.431,3.1c3.019,4.28,5.173,9.081,6.455,14.104c0.357,1.412-0.506,2.842-1.936,3.2
				c-0.041,0.006-0.086,0.016-0.125,0.022l-0.02,0.005h-0.01l2.043-3.358c0.44,1.407,1.035,2.812,1.741,4.157
				c0.345,0.678,0.734,1.336,1.142,1.973c0.205,0.309,0.414,0.654,0.612,0.911c0.207,0.282,0.373,0.547,0.669,0.891l0.395,0.488
				c0.017,0.018-0.086-0.104-0.037-0.049l0.013,0.013l0.024,0.026l0.045,0.055l0.099,0.104l0.193,0.205l0.771,0.83
				c0.268,0.271,0.557,0.521,0.83,0.785c0.277,0.256,0.547,0.525,0.854,0.764c0.594,0.479,1.178,0.979,1.82,1.413
				c0.321,0.222,0.621,0.459,0.951,0.668l0.986,0.623c0.652,0.431,1.365,0.782,2.041,1.179c0.711,0.35,1.401,0.729,2.134,1.049
				c0.728,0.33,1.451,0.663,2.198,0.953c0.742,0.312,1.5,0.58,2.259,0.854c0.753,0.288,1.536,0.519,2.302,0.778
				c0.779,0.234,1.561,0.475,2.348,0.691c1.569,0.438,3.177,0.847,4.762,1.202c0.785,0.187,1.64,0.354,2.454,0.53l2.356,0.414
				c1.606,0.243,3.219,0.464,4.842,0.596c0.805,0.086,1.617,0.132,2.427,0.171l1.22,0.065l1.213,0.016
				c0.813,0.013,1.623,0.027,2.434-0.011c0.807-0.021,1.619-0.031,2.424-0.103c0.806-0.06,1.615-0.098,2.41-0.204
				c0.799-0.091,1.6-0.169,2.389-0.312l1.188-0.188c0.392-0.063,0.777-0.156,1.17-0.232l1.166-0.245l1.143-0.302
				c1.531-0.396,2.989-0.926,4.39-1.521c1.379-0.633,2.657-1.367,3.741-2.218l0.662-0.399c0.688-0.433-0.889,0.561-0.715,0.446
				l0.033-0.03l0.068-0.066l0.133-0.126l0.271-0.254l0.497-0.519c0.155-0.172,0.286-0.345,0.437-0.516
				c0.141-0.171,0.241-0.342,0.371-0.511c0.109-0.169,0.182-0.328,0.281-0.49c0.078-0.157,0.119-0.304,0.195-0.452
				c0.004-0.095,0.024-0.068,0.072-0.192l0.025-0.429l0.015-0.211l0.003-0.052c0,0.088,0.006-0.266,0,0.184l-0.008-0.063
				c-0.035-0.654-0.238-1.184-0.656-1.733c-0.219-0.27-0.483-0.536-0.799-0.796c-0.321-0.254-0.689-0.495-1.081-0.722
				c-1.61-0.906-3.647-1.505-5.732-1.921c-2.103-0.414-4.286-0.654-6.488-0.78c-4.414-0.243-8.914-0.076-13.354,0.395
				c-2.221,0.237-4.431,0.559-6.592,0.986c-1.077,0.217-2.147,0.459-3.183,0.742c-0.515,0.143-1.021,0.295-1.511,0.456
				c-0.227,0.081-0.427,0.146-0.717,0.259l-0.2,0.076l-0.156,0.064l-0.384,0.154c-4.036,1.685-7.977,3.792-11.184,6.471
				c-1.573,1.346-2.971,2.851-3.797,4.457c-0.832,1.611-1.044,3.233-0.576,4.854c0.099,0.4,0.283,0.809,0.451,1.21
				c0.098,0.175,0.191,0.352,0.283,0.53l0.064,0.135l0.119,0.182l0.23,0.354l0.234,0.356l0.058,0.09
				c0.021,0.034-0.091-0.132-0.028-0.047l0.028,0.036l0.112,0.147l0.447,0.58c0.332,0.365,0.641,0.746,1.005,1.089
				c0.692,0.706,1.477,1.342,2.309,1.927c0.823,0.595,1.728,1.106,2.647,1.585c3.729,1.894,8.033,2.887,12.383,3.371
				c4.359,0.469,8.835,0.419,13.209-0.097c0.53-0.069,1.061-0.136,1.646-0.226l0.423-0.064l0.36-0.062
				c0.261-0.043,0.513-0.103,0.767-0.146c1.012-0.224,2.012-0.497,2.918-0.858c0.901-0.34,1.764-0.824,2.178-1.229
				c0.211-0.185,0.222-0.313,0.159-0.104c0,0.092-0.007,0.207,0.029,0.256c0,0.032,0.009,0.012-0.056-0.063
				c-0.108-0.145-0.383-0.392-0.745-0.615c-0.157-0.116-0.382-0.228-0.566-0.338l-0.642-0.323c-0.227-0.097-0.406-0.188-0.663-0.293
				l-0.746-0.292l-0.665-0.221c-0.23-0.072-0.477-0.126-0.711-0.188c-1.947-0.461-4.123-0.627-6.285-0.623
				c-2.171,0-4.37,0.162-6.484,0.502l-0.782,0.138l-0.722,0.152l-0.825,0.209l-0.052,0.015c0.004-0.003-0.09,0.021,0.002-0.003
				l-0.09,0.026l-0.176,0.062l-0.352,0.112c-0.484,0.131-0.918,0.347-1.377,0.524c-0.221,0.101-0.428,0.228-0.643,0.333
				c-0.22,0.105-0.431,0.222-0.623,0.357c-0.828,0.489-1.548,1.12-2.193,1.811c-0.65,0.688-1.189,1.479-1.613,2.332
				c-0.885,1.702-1.245,3.684-1.21,5.66c0.08,1.983,0.597,3.979,1.543,5.763c0.459,0.9,1.054,1.73,1.726,2.492
				c0.324,0.388,0.699,0.729,1.065,1.088c0.396,0.313,0.774,0.657,1.211,0.934c0.412,0.309,0.868,0.54,1.313,0.803l0.67,0.312
				c0.117,0.051,0.207,0.107,0.344,0.16l0.404,0.145l0.402,0.149l0.207,0.069l0.048,0.021c0.028,0.013-0.063-0.021,0,0l0.093,0.021
				l0.758,0.2c0.501,0.164,1.029,0.196,1.554,0.293c2.1,0.292,4.287,0.011,6.377-0.621
				C221.563,323.233,225.341,320.334,227.713,316.437z"/>
		</g>
	</g>
</g>
</svg>